<?xml version="1.0" encoding="UTF-8"?><svg id="Réteg_2" xmlns="http://www.w3.org/2000/svg" viewBox="0 0 390.83 56.04"><defs><style>.cls-1{fill:#005EFA;}</style></defs><g id="Réteg_1"><path class="cls-1" d="M4.92,16.02h13.56c14.1,0,22.5,7.26,22.5,19.38,0,6.36-2.64,12.06-7.32,15.78-4.44,3.54-9.24,4.86-17.64,4.86H0L4.92,16.02ZM17.94,27.78l-1.98,16.38h2.04c4.8,0,8.64-4.02,8.64-9.12,0-4.2-2.94-7.26-6.9-7.26h-1.8Z"/><path class="cls-1" d="M75.84,16.02l-1.26,10.44h-11.82l-.54,4.38h10.8l-1.2,9.9h-10.8l-.54,4.56h12.24l-1.32,10.74h-26.76l4.92-40.02h26.28Z"/><path class="cls-1" d="M121.08,35.52c4.2.9,6.54,4.02,6.54,8.58,0,7.08-5.76,11.94-13.62,11.94h-22.44l4.92-40.02h17.94c6.42,0,10.26,1.86,12.24,5.88.66,1.44,1.02,3.06,1.02,4.32,0,4.74-2.4,7.98-6.66,8.94l.06.36ZM107.46,39.78l-.84,6.9h.96c4.26,0,6.12-1.08,6.12-4.14,0-1.92-1.14-2.76-3.78-2.76h-2.46ZM109.2,25.62l-.72,5.76h1.26c3.12,0,4.5-.9,4.5-3.12,0-1.8-1.08-2.64-3-2.64h-2.04Z"/><path class="cls-1" d="M152.04,16.02l-3.42,27.96,12.3-.36-1.5,12.42h-27l4.92-40.02h14.7Z"/><path class="cls-1" d="M179.22,50.7l-1.92,5.34h-15.6l18.48-40.02h16.56l7.44,40.02h-14.82l-.3-5.34h-9.84ZM194.82,11.34c-1.86,1.44-4.38,1.68-6.24,1.68-2.88,0-4.86-.6-6.18-1.62-1.5-1.14-2.46-3-2.46-4.92,0-1.74.78-3.54,2.4-4.8,1.86-1.44,4.38-1.68,6.24-1.68s4.44.24,6.24,1.68c1.44,1.14,2.4,3,2.4,4.8,0,1.98-.96,3.78-2.4,4.86ZM182.58,41.58h5.52l-.6-7.26c-.06-.66-.12-1.68-.12-2.82,0-1.44.06-1.86.18-3.18h-.48c-.54,2.34-.9,3.66-1.8,6l-2.7,7.26ZM186.48,4.92c-.66.42-.9,1.02-.9,1.68,0,.72.3,1.14.9,1.5s1.32.48,2.1.48c.48,0,1.44-.06,2.16-.48.6-.36.84-.84.84-1.62,0-.6-.24-1.14-.84-1.56-.6-.36-1.5-.48-2.16-.48-1.2,0-1.8.3-2.1.48Z"/><path class="cls-1" d="M264.65,16.02l-4.92,40.02h-14.52l1.8-14.58h-8.58l-1.74,14.58h-14.52l4.92-40.02h14.52l-1.68,13.68h8.52l1.68-13.68h14.52Z"/><path class="cls-1" d="M298.97,16.02l-1.26,10.44h-11.82l-.54,4.38h10.8l-1.2,9.9h-10.8l-.54,4.56h12.24l-1.32,10.74h-26.76l4.92-40.02h26.28Z"/><path class="cls-1" d="M320.33,16.02l-3.42,27.96,12.3-.36-1.5,12.42h-27l4.92-40.02h14.7Z"/><path class="cls-1" d="M360.12,16.02l-1.56,12.6-6.9-.42-3.42,27.84h-14.7l3.42-27.84-6.9.42,1.5-12.6h28.56Z"/><path class="cls-1" d="M390.83,16.02l-1.26,10.44h-11.82l-.54,4.38h10.8l-1.2,9.9h-10.8l-.54,4.56h12.24l-1.32,10.74h-26.76l4.92-40.02h26.28Z"/></g></svg>