<?xml version="1.0" encoding="UTF-8" standalone="no"?>
<!DOCTYPE svg PUBLIC "-//W3C//DTD SVG 1.1//EN" "http://www.w3.org/Graphics/SVG/1.1/DTD/svg11.dtd">
<svg width="100%" height="100%" viewBox="0 0 2275 2126" version="1.1" xmlns="http://www.w3.org/2000/svg" xmlns:xlink="http://www.w3.org/1999/xlink" xml:space="preserve" xmlns:serif="http://www.serif.com/" style="fill-rule:evenodd;clip-rule:evenodd;stroke-linejoin:round;stroke-miterlimit:2;">
    <g transform="matrix(1,0,0,1,-303.184,-828.861)">
        <g>
            <path d="M1156.63,1753.38C1170.42,1753.38 1181.63,1764.58 1181.63,1778.38C1181.63,1792.18 1170.42,1803.38 1156.63,1803.38C1126.68,1803.38 1126.38,1805.52 1098.09,1795.56C1076.35,1787.91 1023,1792.26 1014.09,1793.7C1000.47,1795.92 987.619,1786.65 985.407,1773.04C983.195,1759.42 992.456,1746.56 1006.08,1744.35C1017.59,1742.48 1086.57,1738.5 1114.68,1748.4C1134.92,1755.52 1135.21,1753.38 1156.63,1753.38Z" style="fill:rgb(0,96,255);"/>
            <path d="M858.498,1829.45C849.957,1839.57 834.859,1841.31 824.222,1833.18C813.258,1824.8 811.159,1809.1 819.536,1798.14C823.061,1793.52 831.449,1786.64 842.617,1780.15C862.257,1768.72 891.267,1756.32 899.266,1754.33C945.89,1742.72 973.138,1744.84 1010.88,1744.84C1024.68,1744.84 1035.88,1756.05 1035.88,1769.84C1035.88,1783.64 1024.68,1794.84 1010.88,1794.84C977.235,1794.84 952.908,1792.5 911.345,1802.85C906.069,1804.16 889.122,1811.82 874.832,1819.44C868.19,1822.98 859.562,1828.74 858.498,1829.45Z" style="fill:rgb(0,96,255);"/>
            <path d="M844.796,1837.73C844.7,1837.76 844.599,1837.8 844.52,1837.84C829.171,1844.24 785.731,1874.54 755.757,1931.36C749.319,1943.56 734.184,1948.24 721.981,1941.8C709.777,1935.37 705.096,1920.23 711.534,1908.03C740.482,1853.16 780.256,1818.88 805.412,1802.55C819.713,1793.28 830.935,1789.33 835.549,1788.61C849.182,1786.49 861.976,1795.83 864.102,1809.46C866.147,1822.58 857.583,1834.91 844.796,1837.73Z" style="fill:rgb(0,96,255);"/>
            <path d="M594.186,2055.33C584.334,2062.39 570.526,2061.41 561.788,2052.48C552.134,2042.62 552.301,2026.78 562.16,2017.13C561.835,2017.44 561.642,2017.66 561.498,2017.82L569.557,2011.72C582.833,2005.03 583.761,2007.99 596.916,2001.52C616.461,1991.89 632.798,1987.52 647.271,1983.31C656.805,1980.53 665.318,1978.15 673.244,1972.43C686.17,1963.11 696.852,1945.77 710.308,1910.73C715.255,1897.85 729.728,1891.41 742.609,1896.36C755.489,1901.3 761.931,1915.78 756.984,1928.66C738.213,1977.53 720.521,1999.98 702.49,2012.99C689.781,2022.15 676.519,2026.87 661.232,2031.32C649.113,2034.84 635.365,2038.32 618.998,2046.38C606.793,2052.38 605.268,2050.1 594.186,2055.33ZM594.88,2054.82C596.862,2053.57 597.279,2052.8 598.593,2051.34L597.141,2052.85C596.418,2053.56 595.663,2054.22 594.88,2054.82Z" style="fill:rgb(0,96,255);"/>
            <path d="M395.743,2162.69C398.095,2158.14 409.428,2136.71 418.663,2127.68C459.376,2087.86 482.537,2062.13 502.23,2045.18C525.458,2025.18 544.651,2015.59 576.503,2010.23C590.109,2007.93 603.017,2017.12 605.31,2030.72C607.603,2044.33 598.418,2057.24 584.812,2059.53C558.392,2063.98 544.81,2073.07 523.649,2093.31C506.625,2109.59 485.663,2132.09 453.621,2163.42C449.308,2167.64 446.285,2174.31 443.506,2179.61C439.687,2186.89 436.063,2192.92 433.205,2196.11L427.661,2200.8C420.819,2208.29 409.783,2211.15 399.83,2207.13C387.036,2201.96 380.843,2187.38 386.01,2174.59L391.331,2166.32L395.743,2162.69ZM427.581,2200.87L425.413,2202.71C426.22,2202.13 426.94,2201.51 427.581,2200.87ZM427.797,2200.65C430.368,2198.02 431.641,2195.12 432.372,2193.31C431.252,2196.09 429.689,2198.55 427.797,2200.65ZM397.167,2161.52L397.795,2161C397.576,2161.16 397.367,2161.34 397.167,2161.52Z" style="fill:rgb(0,96,255);"/>
            <path d="M399.439,2160.86C411.133,2153.53 426.573,2157.08 433.896,2168.77C441.22,2180.47 437.672,2195.91 425.978,2203.23C424.185,2204.35 422.52,2206.21 419.132,2212.66C412.358,2225.56 403.474,2248.6 390.762,2291.18C385.912,2307.43 381.072,2316.27 376.264,2323.68C371.413,2331.16 366.252,2336.28 360.731,2352.58C356.305,2365.65 342.101,2372.66 329.032,2368.24C315.964,2363.81 308.948,2349.61 313.374,2336.54C318.746,2320.68 323.823,2312.03 328.667,2304.78C333.449,2297.61 338.148,2292.64 342.851,2276.88C373.892,2172.9 390.687,2166.34 399.439,2160.86Z" style="fill:rgb(0,96,255);"/>
            <path d="M315.815,2333.42C323.385,2321.89 338.897,2318.67 350.432,2326.24C361.968,2333.81 365.188,2349.32 357.617,2360.86C354.956,2364.91 354.185,2371.88 353.569,2379.51C352.345,2394.66 353.826,2412.44 358.477,2424.62C363,2436.46 360.068,2437.22 371.952,2463.85C379.757,2481.34 383.777,2492.6 387.005,2500.86C389.968,2508.44 391.764,2511.97 398.81,2517.97C409.311,2526.92 410.571,2542.72 401.621,2553.22C392.671,2563.72 376.878,2564.98 366.377,2556.03C344.894,2537.72 348.129,2533.16 326.293,2484.23C313.624,2455.84 316.591,2455.08 311.77,2442.46C304.855,2424.36 301.912,2398.01 303.731,2375.48C305.143,2357.99 309.713,2342.72 315.815,2333.42Z" style="fill:rgb(0,96,255);"/>
            <path d="M366.579,2555.95C356.377,2546.66 355.637,2530.83 364.926,2520.63C374.216,2510.43 390.041,2509.69 400.243,2518.97C407.835,2525.89 415.114,2529.04 424.624,2532.38C437.773,2537 454.176,2541.59 477.715,2550.95C508.254,2563.09 508.822,2560.68 546.344,2571.06C559.643,2574.74 567.452,2588.52 563.773,2601.82C560.094,2615.12 546.311,2622.93 533.012,2619.25C492.645,2608.08 492.094,2610.47 459.239,2597.41C408.59,2577.27 389.163,2576.51 366.579,2555.95Z" style="fill:rgb(0,96,255);"/>
            <path d="M539.47,2620.92C526.41,2616.46 519.424,2602.24 523.878,2589.18C528.333,2576.12 542.551,2569.14 555.61,2573.59C564.445,2576.61 581.011,2585.5 717.611,2605.95C728.082,2607.52 758.389,2615.91 787.063,2620.95C802.074,2623.58 816.468,2625.85 825.353,2623.74C838.777,2620.55 852.266,2628.86 855.456,2642.28C858.647,2655.71 850.339,2669.2 836.915,2672.39C826.294,2674.91 810.689,2674.79 793.459,2672.52C761.448,2668.31 722.379,2657.22 710.206,2655.4C566.178,2633.84 548.785,2624.09 539.47,2620.92Z" style="fill:rgb(0,96,255);"/>
            <path d="M827.859,2673.41C814.208,2671.41 804.753,2658.7 806.759,2645.05C808.765,2631.39 821.477,2621.94 835.128,2623.95C939.009,2639.21 1079.55,2591.57 1124.31,2557.45C1135.28,2549.09 1150.98,2551.21 1159.35,2562.18C1167.71,2573.16 1165.59,2588.86 1154.62,2597.22C1104,2635.8 945.322,2690.68 827.859,2673.41Z" style="fill:rgb(0,96,255);"/>
            <path d="M995.138,2648.44C988.606,2636.9 992.24,2622.13 1003.58,2614.99C1015.25,2607.63 1030.7,2611.14 1038.05,2622.81C1041.25,2627.88 1058.39,2683.79 1059.96,2689.16C1061.76,2695.33 1066.8,2702.31 1071.47,2708.91C1078.55,2718.9 1085.56,2728.07 1088.58,2733.68C1095.12,2745.84 1090.56,2761.01 1078.41,2767.54C1066.26,2774.08 1051.09,2769.52 1044.55,2757.37C1038.64,2746.38 1017.3,2721.45 1011.96,2703.16C1010.74,2698.97 994.799,2647.86 994.799,2647.86C994.799,2647.86 994.952,2648.13 995.138,2648.44Z" style="fill:rgb(0,96,255);"/>
            <path d="M659.055,2285.54C645.446,2287.82 632.55,2278.62 630.274,2265.01C627.999,2251.4 637.2,2238.5 650.809,2236.23C675.226,2232.15 685.051,2226.37 694.285,2223.91C704.405,2221.21 714.077,2220.41 730.059,2224.68C739.028,2227.07 749.521,2226.96 762.329,2227.91C786.485,2229.69 817.27,2233.7 858.287,2252.7C909.49,2276.42 909.513,2276.24 913.925,2278.38C926.342,2284.39 931.541,2299.36 925.526,2311.77C919.511,2324.19 904.546,2329.39 892.128,2323.37C887.779,2321.27 887.752,2321.45 837.271,2298.07C797.725,2279.75 769.654,2278.44 748.4,2277.09C736.517,2276.33 726.283,2275.42 717.166,2272.98C708.672,2270.72 705.276,2272.73 698.752,2275.09C689.918,2278.29 678.312,2282.32 659.055,2285.54Z" style="fill:rgb(0,96,255);"/>
            <path d="M893.417,2321.79C880.498,2316.95 873.942,2302.53 878.787,2289.61C883.632,2276.69 898.054,2270.13 910.973,2274.98C914.761,2276.4 925.675,2276.74 956.822,2253.65C1000.44,2221.32 1014.38,2202.41 1026.42,2186.29C1036.31,2173.06 1045.28,2161.48 1063.34,2147.53C1074.26,2139.1 1089.97,2141.12 1098.4,2152.04C1106.84,2162.96 1104.82,2178.67 1093.9,2187.11C1080.41,2197.53 1073.86,2206.33 1066.48,2216.22C1052.63,2234.76 1036.75,2256.64 986.6,2293.82C926.672,2338.25 900.705,2324.53 893.417,2321.79Z" style="fill:rgb(0,96,255);"/>
            <path d="M889.91,2319.28C880.644,2309.06 881.42,2293.24 891.644,2283.97C901.867,2274.7 917.69,2275.48 926.956,2285.7C939.066,2299.06 982.367,2325.57 1007.4,2335.83C1030.57,2345.32 1029.74,2346.93 1053.06,2356.16C1078.48,2366.21 1078.73,2365.04 1116.05,2372.94C1129.55,2375.8 1138.19,2389.08 1135.33,2402.57C1132.47,2416.07 1119.19,2424.71 1105.69,2421.85C1063.58,2412.93 1063.36,2414 1034.67,2402.65C1011.07,2393.32 1011.9,2391.7 988.45,2382.1C957.584,2369.45 904.84,2335.75 889.91,2319.28Z" style="fill:rgb(0,96,255);"/>
            <path d="M1086.47,2395.72C1090.57,2382.55 1104.59,2375.18 1117.76,2379.27C1130.94,2383.37 1138.31,2397.39 1134.22,2410.57C1131.33,2419.86 1128.17,2425.91 1125.15,2430.74C1121.92,2435.9 1118.22,2437.64 1116.81,2448.03C1114.96,2461.71 1102.36,2471.3 1088.68,2469.45C1075.01,2467.6 1065.41,2454.99 1067.27,2441.32C1069.18,2427.18 1072.71,2419.64 1076.55,2413.39C1079.41,2408.73 1083.33,2405.83 1086.47,2395.72Z" style="fill:rgb(0,96,255);"/>
            <path d="M1303.79,2264.48C1284.14,2263.8 1277.8,2269.32 1266.2,2281.02C1258.45,2288.84 1249.2,2298.56 1236.17,2310.29C1214.77,2329.54 1217.24,2331.35 1198.36,2353.36C1178.05,2377.05 1169.58,2392.34 1161.82,2401.81C1149.4,2416.98 1138.6,2423.93 1110.74,2424.78C1096.95,2425.2 1085.41,2414.34 1084.99,2400.55C1084.57,2386.76 1095.43,2375.22 1109.22,2374.8C1114.17,2374.65 1117.5,2374.76 1120.05,2373.26C1122.82,2371.63 1124.38,2368.66 1127.01,2364.98C1134.16,2354.98 1143.32,2340.74 1160.4,2320.82C1181.4,2296.32 1178.92,2294.54 1202.72,2273.12C1219.36,2258.15 1229.52,2246.57 1238.48,2238.2C1256.99,2220.91 1271.58,2212.99 1307.04,2214.58C1313.77,2214.88 1317.99,2214.28 1320.96,2215L1326.82,2217.14L1332.48,2220.87L1338.88,2228.54L1342.59,2237.67C1346.22,2250.98 1338.36,2264.74 1325.05,2268.37C1317.45,2270.44 1309.71,2268.77 1303.79,2264.48Z" style="fill:rgb(0,96,255);"/>
            <path d="M1346.49,2289.15C1355.74,2292.91 1380.07,2306.88 1403.91,2327.13C1430.2,2349.48 1455.36,2379.35 1462.23,2408.34C1464.19,2416.62 1486.12,2471.59 1457.56,2520.97C1450.65,2532.91 1435.34,2537 1423.4,2530.09C1411.45,2523.18 1407.37,2507.87 1414.28,2495.93C1433.55,2462.61 1414.9,2425.45 1413.57,2419.86C1408.84,2399.87 1389.66,2380.64 1371.53,2365.23C1354.01,2350.35 1329.49,2336.11 1329.49,2336.11C1329.49,2336.11 1330.04,2336.29 1330.23,2336.34L1322.07,2333.01L1315,2328.32C1309.48,2323.85 1304.78,2317.89 1301.17,2310.65C1291.74,2291.74 1290.43,2261.51 1293.77,2240.35C1295.93,2226.72 1308.74,2217.4 1322.37,2219.55C1336,2221.71 1345.31,2234.52 1343.16,2248.15C1341.69,2257.46 1341.3,2269.66 1343.37,2280.11C1343.97,2283.13 1345.83,2287.61 1346.49,2289.15Z" style="fill:rgb(0,96,255);"/>
            <path d="M1374.21,2499.74C1373.16,2501.03 1372.16,2502.3 1371.35,2503.4C1364.39,2512.88 1356.61,2522.67 1346.39,2529.8C1340.85,2533.66 1336.13,2542.89 1328.1,2553.24C1310.94,2575.33 1285.35,2602.66 1238.32,2620.23C1228.58,2623.86 1216.96,2629.36 1199.68,2628.45C1183.72,2627.6 1161.86,2621.24 1131.32,2598.06C1120.33,2589.72 1118.18,2574.02 1126.52,2563.03C1134.86,2552.04 1150.56,2549.89 1161.55,2558.23C1180.14,2572.35 1192.61,2578 1202.32,2578.52C1210.72,2578.96 1216.1,2575.15 1220.83,2573.39C1262.77,2557.72 1282.1,2531.52 1295.23,2513.78C1303.73,2502.3 1310.97,2493.54 1317.8,2488.78C1327.97,2481.69 1333.46,2469.71 1340.44,2461.77C1351.14,2449.61 1363.51,2442.5 1379.54,2443.01L1389.17,2445.25L1394.4,2448.43L1398.32,2452.18C1400.78,2455.02 1410.44,2469.91 1446.1,2488.66C1458.31,2495.08 1463.01,2510.21 1456.59,2522.42C1450.17,2534.64 1435.05,2539.34 1422.83,2532.92C1399.52,2520.66 1383.95,2508.67 1374.21,2499.74Z" style="fill:rgb(0,96,255);"/>
            <path d="M1285.23,1641.68C1299.03,1641.39 1310.46,1652.35 1310.76,1666.14C1311.05,1679.94 1300.09,1691.37 1286.3,1691.67C1266.96,1692.08 1256.02,1694.04 1248.7,1697.95C1241.33,1701.89 1237.81,1707.4 1232.34,1712.51C1226.12,1718.31 1215.82,1727.1 1208.12,1738.65C1202.64,1746.88 1198.26,1756.83 1200.75,1768.46C1203.64,1781.95 1195.03,1795.25 1181.54,1798.14C1168.05,1801.03 1154.75,1792.43 1151.86,1778.93C1146.21,1752.6 1154.09,1729.57 1166.52,1710.92C1176.72,1695.61 1189.99,1683.64 1198.23,1675.95C1206.92,1667.84 1213.41,1660.12 1225.13,1653.85C1236.9,1647.56 1254.12,1642.35 1285.23,1641.68Z" style="fill:rgb(0,96,255);"/>
            <path d="M1347.98,1768.62C1373.59,1796.16 1386.15,1810.42 1393.75,1818.54C1398.26,1823.36 1399.6,1824.75 1403.05,1826.52C1431.76,1841.25 1442.65,1847.8 1445.13,1849.35C1495.75,1867.24 1515.28,1856.17 1531.62,1853.61C1552.71,1850.29 1570.12,1841.55 1581.11,1831.33C1584.64,1828.04 1588.04,1822.57 1589.28,1820.45C1574.94,1790.69 1574.39,1770.93 1575.4,1751.12C1575.91,1741.05 1577.1,1730.97 1575.79,1718.45C1574.35,1704.73 1584.32,1692.41 1598.04,1690.97C1611.76,1689.53 1624.07,1699.5 1625.51,1713.23C1627.14,1728.72 1625.97,1741.2 1625.33,1753.65C1624.66,1767.01 1625.1,1780.32 1635.34,1800.8L1639.21,1812.83L1639.52,1824.74C1638.84,1831.32 1636.71,1838.37 1632.91,1845.49C1620.49,1868.75 1586.38,1895.61 1539.38,1903C1518.28,1906.32 1493.08,1919.68 1427.07,1895.99C1423.07,1894.56 1423.74,1893.34 1380.22,1871C1367.38,1864.41 1367.87,1863.39 1310.73,1801.99C1308.81,1799.93 1288.31,1771.69 1275.7,1747.13C1269.06,1734.18 1264.81,1721.86 1264.12,1713.58C1263.83,1710.01 1262.7,1700.92 1268.53,1669.05C1271.02,1655.48 1284.05,1646.48 1297.63,1648.96C1311.2,1651.45 1320.2,1664.48 1317.71,1678.05C1313.59,1700.57 1313.74,1706.92 1313.95,1709.44C1314.42,1715.12 1319.7,1723.85 1324.86,1732.9C1333.49,1748.07 1346.62,1766.7 1347.98,1768.62Z" style="fill:rgb(0,96,255);"/>
            <path d="M1319.75,1672.39C1317.14,1685.94 1304.02,1694.82 1290.47,1692.21C1276.92,1689.6 1268.04,1676.48 1270.65,1662.93C1274.43,1643.36 1271.04,1643.07 1275.02,1623.52C1278.15,1608.11 1274.09,1608.51 1269.82,1593.12C1266.13,1579.82 1273.93,1566.03 1287.23,1562.35C1300.52,1558.65 1314.31,1566.45 1318,1579.75C1325.49,1606.74 1329.51,1606.47 1324.01,1633.49C1320.09,1652.78 1323.48,1653.07 1319.75,1672.39Z" style="fill:rgb(0,96,255);"/>
            <path d="M1315.94,1574.59C1322.14,1586.39 1317.97,1601.09 1306.34,1607.83C1294.4,1614.75 1279.09,1610.67 1272.17,1598.74C1270.13,1595.21 1268.32,1584.64 1248.54,1559.78C1243.24,1553.12 1226.05,1528.59 1203.26,1511.81C1192.14,1503.63 1189.76,1487.97 1197.94,1476.86C1206.12,1465.74 1221.78,1463.36 1232.9,1471.54C1260.23,1491.66 1281.31,1520.66 1287.66,1528.64C1308.44,1554.75 1315.34,1572.93 1315.94,1574.59Z" style="fill:rgb(0,96,255);"/>
            <path d="M1175.5,1409.4C1175.77,1409.97 1177.38,1413.3 1178.71,1415.28C1182.14,1420.39 1186.78,1425.76 1191.84,1431.13C1211.23,1451.74 1235.51,1472.28 1240.87,1480.47C1248.44,1492.01 1245.21,1507.52 1233.67,1515.09C1222.13,1522.65 1206.62,1519.42 1199.06,1507.88C1193.39,1499.24 1163.71,1476.14 1145.82,1454.58C1133.96,1440.29 1126.79,1425.78 1125.76,1414.54C1124.51,1400.8 1134.65,1388.62 1148.39,1387.37C1161.93,1386.13 1173.95,1395.96 1175.5,1409.4Z" style="fill:rgb(0,96,255);"/>
            <path d="M1169.22,1131.31C1182.31,1126.95 1196.47,1134.05 1200.82,1147.15C1205.17,1160.24 1198.08,1174.4 1184.98,1178.75C1182.7,1179.51 1182.37,1181.19 1180.41,1183.78C1176.23,1189.34 1170.7,1197.21 1161.74,1208.75C1155.97,1216.18 1153.65,1227.43 1152.09,1238.29C1149.12,1258.9 1150.42,1279.12 1150.67,1283.1C1151.54,1296.87 1141.06,1308.75 1127.29,1309.62C1113.52,1310.48 1101.63,1300 1100.77,1286.23C1100.47,1281.33 1098.95,1256.49 1102.6,1231.16C1105.45,1211.39 1111.74,1191.62 1122.25,1178.09C1133.49,1163.6 1139.36,1154.88 1143.94,1149.26C1152.14,1139.18 1158.24,1134.95 1169.22,1131.31Z" style="fill:rgb(0,96,255);"/>
            <path d="M1101.04,1278.44C1100.9,1264.65 1111.98,1253.33 1125.78,1253.18C1139.57,1253.04 1150.89,1264.12 1151.04,1277.91C1151.55,1326.18 1161.83,1374.6 1175.68,1408.84C1180.85,1421.63 1174.67,1436.22 1161.88,1441.39C1149.09,1446.56 1134.5,1440.38 1129.33,1427.59C1113.55,1388.57 1101.63,1333.44 1101.04,1278.44Z" style="fill:rgb(0,96,255);"/>
            <path d="M1202.19,1151.89C1201.02,1165.64 1188.91,1175.85 1175.16,1174.68C1161.41,1173.51 1151.2,1161.39 1152.37,1147.64C1153.07,1139.53 1151.8,1124.4 1162.87,1102.7C1172.82,1083.2 1193.73,1057.23 1240.79,1026.82C1259.92,1014.45 1268.14,1017.38 1300.04,1004.5C1303.91,1002.94 1337.5,989.855 1349.59,988.309C1363.28,986.558 1375.81,996.248 1377.56,1009.93C1379.31,1023.62 1369.62,1036.15 1355.94,1037.9C1346.81,1039.07 1321.68,1049.69 1318.76,1050.87C1305.66,1056.16 1296.42,1058.76 1288.79,1060.79C1281.14,1062.82 1275.8,1063.72 1267.93,1068.81C1232.07,1091.99 1214.99,1110.57 1207.41,1125.43C1200.94,1138.11 1202.6,1147.15 1202.19,1151.89Z" style="fill:rgb(0,96,255);"/>
            <path d="M1363.17,1035.46C1350.38,1040.65 1335.79,1034.48 1330.61,1021.69C1325.42,1008.9 1331.59,994.313 1344.38,989.128C1398.19,967.307 1445.18,964.14 1483.83,958.639C1512.74,954.523 1536.31,950.338 1551.39,926.135C1553.52,922.728 1562.07,908.036 1564.34,877.658C1564.46,876.026 1565.04,867.879 1563.63,857.215C1561.81,843.537 1571.44,830.959 1585.12,829.145C1598.8,827.331 1611.38,836.963 1613.19,850.641C1615.32,866.672 1614.38,878.922 1614.2,881.376C1610.86,926.215 1596.96,947.551 1593.83,952.579C1574.39,983.772 1547.68,997.073 1513.73,1004.22C1474.4,1012.51 1423.27,1011.09 1363.17,1035.46Z" style="fill:rgb(0,96,255);"/>
            <path d="M1724.51,1048.35C1723.73,1061.12 1713.28,1071.42 1700.24,1071.78C1686.45,1072.16 1674.95,1061.26 1674.57,1047.47C1674.47,1043.99 1682.72,1006.8 1683.19,968.806C1683.42,949.451 1682.35,929.543 1673.52,917.08C1664.51,904.382 1660.32,897.437 1654.1,893.023C1647.88,888.601 1639.92,886.92 1624.96,882.563C1602.04,875.89 1599.08,879.806 1591.45,878.987C1577.73,877.514 1567.79,865.18 1569.26,851.461C1570.74,837.742 1583.07,827.8 1596.79,829.273C1606.4,830.305 1610.04,826.145 1638.93,834.556C1661.9,841.244 1673.49,845.467 1683.05,852.255C1692.62,859.052 1700.44,868.608 1714.3,888.161C1728.31,907.919 1733.56,938.734 1733.18,969.417C1732.76,1004.17 1724.73,1047.19 1724.51,1048.35Z" style="fill:rgb(0,96,255);"/>
            <path d="M1718.8,1029.68C1729.15,1035.04 1755.65,1052.01 1759.03,1086.85C1759.9,1095.83 1759.93,1102.34 1760,1107.7C1760.08,1113.79 1760.73,1116.66 1766.87,1124.78C1771.68,1131.14 1791.67,1164.79 1799.51,1182.54C1801.45,1186.94 1802.77,1190.68 1803.47,1193.37L1804.55,1201.04C1804.82,1217.29 1802.5,1231.67 1800.84,1244.98C1799.41,1256.46 1797.69,1266.83 1804.2,1277.18C1804.4,1277.34 1804.61,1277.5 1804.81,1277.66C1815.59,1286.27 1817.34,1302.02 1808.73,1312.79C1800.11,1323.57 1784.37,1325.33 1773.59,1316.71L1764.31,1307.46C1750.73,1288.19 1748.46,1269.45 1750.16,1248.86C1751.24,1235.65 1754.44,1221.43 1754.57,1204.99C1751.16,1198.5 1730.95,1160.18 1726.99,1154.93C1706.6,1127.97 1712.55,1125.58 1709.26,1091.67C1707.98,1078.47 1698.5,1075.42 1694.2,1073.38L1686.54,1069.02L1680.48,1063.1L1676.79,1056.42L1675.28,1050.36L1675.53,1042.28L1677.74,1035.56C1683.75,1023.14 1698.72,1017.94 1711.14,1023.95C1714.12,1025.39 1716.7,1027.36 1718.8,1029.68ZM1802.72,1276.07C1802.22,1275.67 1801.88,1275.46 1801.88,1275.46C1801.88,1275.46 1802.22,1275.7 1802.72,1276.07ZM1724.45,1052.71C1724.05,1054.28 1723.48,1055.83 1722.75,1057.34C1723.51,1055.77 1724.07,1054.23 1724.45,1052.71Z" style="fill:rgb(0,96,255);"/>
            <path d="M1769.56,1310C1762.69,1298.03 1766.83,1282.74 1778.8,1275.87C1790.76,1269 1806.06,1273.14 1812.92,1285.11C1852.72,1354.43 1836.08,1410.98 1833.05,1421.6C1829.54,1433.95 1828.62,1433.52 1809.65,1464.51C1807.78,1467.57 1808.19,1469.8 1807.86,1473.38C1807.51,1477.21 1807.09,1481.73 1806.24,1487.42C1804.22,1501.07 1791.49,1510.51 1777.85,1508.49C1764.2,1506.46 1754.76,1493.74 1756.78,1480.09C1760.08,1457.88 1759.17,1451.21 1767.01,1438.4C1780.74,1415.96 1782.42,1416.85 1784.97,1407.9C1787.14,1400.27 1798.14,1359.8 1769.56,1310Z" style="fill:rgb(0,96,255);"/>
            <path d="M1756.58,1478.34C1756.58,1464.54 1767.78,1453.34 1781.58,1453.34C1795.37,1453.34 1806.58,1464.54 1806.58,1478.34C1806.58,1523.6 1800.35,1522.59 1792.7,1567.22C1786.87,1601.24 1795.41,1617.83 1752.31,1662.15C1742.69,1672.04 1726.85,1672.27 1716.96,1662.65C1707.07,1653.03 1706.85,1637.19 1716.47,1627.29C1747.23,1595.66 1739.26,1583.05 1743.42,1558.78C1750.35,1518.34 1756.58,1519.35 1756.58,1478.34Z" style="fill:rgb(0,96,255);"/>
            <path d="M1718.24,1624.17C1727.3,1613.76 1743.1,1612.66 1753.51,1621.72C1763.92,1630.77 1765.02,1646.58 1755.97,1656.99C1745.52,1669 1732.15,1707.21 1660.47,1726.29C1603.84,1741.38 1594.03,1736.14 1588.5,1734.41C1575.33,1730.3 1567.97,1716.27 1572.08,1703.1C1576.19,1689.93 1590.22,1682.57 1603.39,1686.68C1606.84,1687.76 1612.38,1687.36 1647.61,1677.98C1701.54,1663.61 1710.38,1633.21 1718.24,1624.17Z" style="fill:rgb(0,96,255);"/>
            <path d="M1594.43,1683.49C1608.23,1683.49 1619.43,1694.69 1619.43,1708.49C1619.43,1722.29 1608.23,1733.49 1594.43,1733.49C1592.66,1733.49 1545.37,1737.12 1493.27,1719.83C1457.51,1707.97 1444.11,1698.84 1435.69,1690.48C1425.91,1680.76 1425.85,1664.91 1435.58,1655.12C1445.3,1645.34 1461.14,1645.28 1470.93,1655.01C1476.38,1660.42 1485.85,1664.69 1509.02,1672.38C1552.98,1686.96 1592.94,1683.49 1594.43,1683.49Z" style="fill:rgb(0,96,255);"/>
            <path d="M1642.87,1808.02C1640.18,1821.55 1627,1830.35 1613.47,1827.65C1599.94,1824.95 1591.14,1811.78 1593.84,1798.25C1595.37,1790.57 1595.44,1790.99 1603.27,1762.03C1606.54,1749.96 1618.23,1742.15 1630.63,1743.77C1709.4,1754.01 1709.11,1743.06 1791.89,1727.42C1853.46,1715.79 1874.08,1710.77 1964.02,1721.96C1994.09,1725.7 1992.29,1731.22 2043.95,1748.46C2057.03,1752.83 2064.12,1767 2059.75,1780.09C2055.38,1793.17 2041.21,1800.26 2028.12,1795.89C1982.5,1780.67 1984.4,1774.88 1957.84,1771.58C1875.98,1761.39 1857.22,1765.97 1801.17,1776.56C1718.68,1792.14 1711.3,1802.54 1645.86,1795.89C1644.1,1802.27 1643.72,1803.79 1642.87,1808.02Z" style="fill:rgb(0,96,255);"/>
            <path d="M2063.27,1384.33C2063.28,1370.53 2074.49,1359.34 2088.28,1359.34C2102.08,1359.35 2113.28,1370.55 2113.27,1384.35C2113.26,1409.44 2106.67,1417.91 2097.82,1517.98C2086.24,1648.92 2079.82,1647.95 2066.78,1778.51C2065.4,1792.24 2053.14,1802.27 2039.41,1800.9C2025.68,1799.53 2015.65,1787.27 2017.02,1773.54C2030.04,1643.27 2036.46,1644.23 2048.01,1513.58C2056.57,1416.77 2063.26,1408.6 2063.27,1384.33Z" style="fill:rgb(0,96,255);"/>
            <path d="M2018.27,1777.08C2019.59,1763.34 2031.81,1753.26 2045.55,1754.58C2059.28,1755.9 2069.36,1768.12 2068.05,1781.85C2051.8,1951.16 2042.33,1950.63 2046.67,2053.11C2047.26,2066.9 2036.54,2078.57 2022.75,2079.15C2008.97,2079.73 1997.3,2069.02 1996.72,2055.23C1992.26,1950.16 2001.62,1950.67 2018.27,1777.08Z" style="fill:rgb(0,96,255);"/>
            <path d="M2022.88,2037.34C2036.6,2038.8 2046.55,2051.13 2045.09,2064.85C2043.63,2078.57 2031.31,2088.52 2017.59,2087.06C1988.82,2084 1990.56,2079.33 1960.06,2056.57C1958.81,2055.64 1908.81,2012.84 1898.44,1997.27C1890.79,1985.79 1893.89,1970.26 1905.37,1962.6C1916.85,1954.95 1932.39,1958.06 1940.04,1969.54C1948.36,1982.01 1988.96,2015.75 1989.96,2016.5C1997.87,2022.39 2003.2,2027 2007.45,2030.65C2012.33,2034.83 2014.34,2036.43 2022.88,2037.34Z" style="fill:rgb(0,96,255);"/>
            <path d="M2196.65,2290.23C2197.92,2303.97 2187.8,2316.16 2174.06,2317.42C2160.32,2318.69 2148.13,2308.57 2146.87,2294.83C2143.24,2255.54 2141.16,2255.95 2138.22,2216.61C2137.45,2206.39 2135.86,2185.7 2135.86,2088.51C2135.86,2074.71 2147.06,2063.51 2160.86,2063.51C2174.66,2063.51 2185.86,2074.71 2185.86,2088.51C2185.86,2182.87 2187.33,2202.95 2188.08,2212.87C2190.99,2251.79 2193.07,2251.38 2196.65,2290.23Z" style="fill:rgb(0,96,255);"/>
            <path d="M2040.56,2080.06C2028.07,2085.92 2013.17,2080.53 2007.31,2068.04C2001.45,2055.55 2006.84,2040.65 2019.33,2034.79C2029.18,2030.17 2049.14,2022.91 2110.7,2040.07C2132.36,2046.11 2146.04,2056.45 2167.34,2064.18C2180.31,2068.89 2187.02,2083.25 2182.31,2096.22C2177.6,2109.18 2163.25,2115.89 2150.28,2111.18C2130.29,2103.93 2117.6,2093.9 2097.27,2088.24C2058.73,2077.49 2046.73,2077.17 2040.56,2080.06Z" style="fill:rgb(0,96,255);"/>
            <path d="M2159.82,2161.94C2146.75,2157.52 2139.73,2143.31 2144.16,2130.24C2148.58,2117.18 2162.78,2110.16 2175.85,2114.58C2230.31,2133.02 2245.33,2129.93 2251.08,2127.86C2258.77,2125.09 2262.42,2121.1 2267.59,2117.25C2280.04,2107.98 2296.9,2097.16 2346.45,2089.95C2360.11,2087.97 2372.81,2097.44 2374.79,2111.1C2376.78,2124.75 2367.3,2137.45 2353.65,2139.43C2312.33,2145.44 2302.34,2153.62 2292.6,2161.06C2285.77,2166.28 2278.89,2170.99 2268.02,2174.9C2259.82,2177.86 2237.52,2188.24 2159.82,2161.94Z" style="fill:rgb(0,96,255);"/>
            <path d="M2003.88,2043.67C2016.72,2038.62 2031.25,2044.93 2036.3,2057.77C2041.36,2070.61 2035.05,2085.14 2022.21,2090.19C2005.87,2096.63 1993.52,2101.5 1984.59,2106.29C1981.02,2108.21 1978,2109.02 1976.9,2111.37C1976.36,2112.5 1977.01,2113.83 1977.25,2115.5C1977.81,2119.42 1978.98,2123.87 1980.54,2129.06C1983.29,2138.16 1988.37,2178.68 1988.39,2209.05C1988.41,2224.67 1986.73,2237.97 1984.07,2245.17C1974.64,2270.65 1974.13,2290.15 1978.12,2304.74C1983.34,2323.83 1996.06,2333.17 1999.33,2335.57C2001.96,2337.5 2003.96,2340.13 2007.79,2341.77C2014.2,2344.52 2024.55,2343.94 2046.37,2339.66C2050,2338.94 2072.85,2334.98 2086.94,2317.45C2095.59,2306.7 2111.34,2304.99 2122.09,2313.64C2132.85,2322.29 2134.55,2338.04 2125.91,2348.79C2101.37,2379.3 2062.32,2387.48 2056,2388.72C2025.14,2394.78 2007.71,2393.58 1996.46,2390.6C1983.33,2387.12 1977.01,2381.21 1969.73,2375.87C1963.59,2371.36 1939.69,2353.79 1929.89,2317.93C1923.86,2295.89 1922.94,2266.29 1937.17,2227.82C1939.21,2222.32 1938.64,2210.47 1938.16,2197.71C1937.31,2175.08 1934.6,2149.87 1932.68,2143.52C1925.22,2118.81 1925.73,2102.64 1931.67,2090.05C1935.82,2081.26 1942.73,2073.4 1954.09,2066.22C1964.78,2059.47 1980.89,2052.73 2003.88,2043.67Z" style="fill:rgb(0,96,255);"/>
            <path d="M2104.92,2049.3C2105.05,2063.09 2093.95,2074.4 2080.15,2074.53C2066.36,2074.66 2055.05,2063.56 2054.92,2049.77C2054.47,2001.81 2060.26,1966.58 2079.86,1823.97C2101.01,1670.1 2098.01,1669.89 2100.84,1656.7C2103.73,1643.21 2117.03,1634.61 2130.52,1637.5C2144.01,1640.39 2152.62,1653.69 2149.72,1667.19C2146.96,1680.08 2150.08,1680.31 2129.4,1830.78C2110.42,1968.82 2104.48,2002.88 2104.92,2049.3Z" style="fill:rgb(0,96,255);"/>
            <path d="M2130.06,1393.57C2130.06,1379.77 2141.27,1368.57 2155.06,1368.57C2168.86,1368.57 2180.06,1379.77 2180.06,1393.57C2180.06,1454.54 2169.59,1472.49 2161.72,1564.96C2160.95,1573.94 2154.02,1653.51 2148.44,1676.93C2145.24,1690.36 2131.74,1698.65 2118.32,1695.45C2104.9,1692.25 2096.6,1678.76 2099.8,1665.34C2105.02,1643.46 2111.18,1569.11 2111.9,1560.72C2119.57,1470.52 2130.06,1453.05 2130.06,1393.57Z" style="fill:rgb(0,96,255);"/>
            <path d="M2062.81,1386.77C2050.27,1381.02 2044.77,1366.16 2050.52,1353.62C2056.28,1341.08 2071.14,1335.58 2083.67,1341.33C2091.45,1344.9 2100.78,1346.24 2110.23,1347.89C2123.78,1350.27 2137.56,1352.9 2149.87,1358.14C2163.25,1363.85 2243.49,1385.97 2257.62,1389.25C2271.06,1392.38 2279.44,1405.82 2276.31,1419.26C2273.19,1432.7 2259.74,1441.08 2246.3,1437.96C2231.07,1434.42 2144.7,1410.29 2130.27,1404.14C2119.2,1399.43 2106.42,1398.08 2094.41,1395.86C2083.09,1393.76 2072.26,1391.11 2062.81,1386.77Z" style="fill:rgb(0,96,255);"/>
            <path d="M2244.24,1437.93C2231.03,1433.93 2223.56,1419.97 2227.55,1406.76C2231.55,1393.56 2245.52,1386.08 2258.72,1390.08C2306.47,1404.53 2340.85,1404.21 2364.15,1411.33C2407.01,1424.42 2427.79,1425.16 2438.19,1427.95C2451.51,1431.53 2459.43,1445.25 2455.85,1458.58C2452.27,1471.91 2438.54,1479.82 2425.22,1476.24C2414.59,1473.39 2393.37,1472.53 2349.55,1459.15C2326.27,1452.04 2291.93,1452.37 2244.24,1437.93Z" style="fill:rgb(0,96,255);"/>
            <path d="M2427.1,1427.05L2436.3,1420.65C2437.25,1420.18 2438.74,1419.48 2439.86,1418.95C2440.32,1417.66 2441.07,1415.44 2441.51,1413.44C2444.76,1398.65 2457.26,1379.2 2467.09,1355.85C2469.31,1350.57 2473.76,1338.48 2478.05,1285.05C2479.15,1271.3 2491.21,1261.03 2504.96,1262.13C2518.72,1263.23 2528.99,1275.29 2527.89,1289.05C2522.65,1354.27 2515.89,1368.8 2513.17,1375.25C2504.75,1395.26 2493.13,1411.51 2490.35,1424.17C2485.43,1446.56 2476.81,1454.59 2469.33,1459.69C2466.33,1461.75 2460.61,1464.47 2459.07,1465.19C2450.04,1473.64 2449.02,1472.43 2438.49,1475.75C2425.33,1479.91 2411.27,1472.6 2407.12,1459.44C2402.96,1446.29 2410.27,1432.23 2423.43,1428.08C2424.65,1427.69 2425.99,1427.33 2427.1,1427.05Z" style="fill:rgb(0,96,255);"/>
            <path d="M2470.87,1254.07C2461.6,1243.85 2462.37,1228.02 2472.59,1218.75C2482.81,1209.48 2498.63,1210.25 2507.9,1220.47C2510.68,1223.54 2513.83,1226.02 2517.14,1231.4C2521.55,1238.55 2527.03,1251.73 2528.46,1283.44C2529.08,1297.23 2518.4,1308.92 2504.61,1309.55C2490.83,1310.17 2479.13,1299.49 2478.51,1285.7C2478.02,1274.81 2477.14,1267.26 2475.89,1261.89C2475.4,1259.75 2475.47,1258.63 2474.88,1258.05C2473.44,1256.62 2472.1,1255.42 2470.87,1254.07Z" style="fill:rgb(0,96,255);"/>
            <path d="M2493.24,1212.41C2506.93,1214.1 2516.68,1226.58 2515,1240.28C2513.31,1253.97 2500.83,1263.72 2487.13,1262.04C2454.26,1258 2454.95,1254.78 2422.31,1248.75C2409.95,1246.46 2410.81,1243.27 2371.35,1235.59C2352.78,1231.98 2322.15,1220.38 2280.74,1211.62C2278.09,1211.06 2278.16,1211.04 2269.41,1208.45C2256.18,1204.53 2248.62,1190.61 2252.53,1177.38C2256.45,1164.15 2270.37,1156.59 2283.6,1160.5C2289.41,1162.22 2289.34,1162.33 2291.09,1162.7C2332.14,1171.39 2362.49,1182.93 2380.9,1186.51C2420,1194.12 2419.14,1197.32 2431.39,1199.58C2462.55,1205.33 2461.86,1208.55 2493.24,1212.41Z" style="fill:rgb(0,96,255);"/>
            <path d="M2284.24,1160.4C2297.45,1164.41 2304.91,1178.38 2300.9,1191.59C2296.89,1204.79 2282.91,1212.25 2269.71,1208.24C2229.22,1195.94 2228.81,1197.72 2188.88,1183.83C2160.18,1173.85 2153.68,1175.85 2102.37,1162.34C2089.03,1158.82 2081.05,1145.13 2084.56,1131.79C2088.07,1118.45 2101.76,1110.47 2115.1,1113.98C2168.63,1128.08 2175.37,1126.19 2205.3,1136.6C2244.3,1150.17 2244.71,1148.39 2284.24,1160.4Z" style="fill:rgb(0,96,255);"/>
            <path d="M1901.01,1104.09C1896.15,1110.9 1894.82,1115.78 1889.42,1123.9C1881.79,1135.39 1866.26,1138.53 1854.77,1130.89C1843.28,1123.26 1840.14,1107.73 1847.78,1096.23C1855.15,1085.14 1856.45,1079.4 1864.87,1069.09L1871.39,1062.72L1878.92,1058.12L1888.16,1054.99C1892.09,1054.13 1896.35,1053.74 1900.89,1053.85C1917.78,1054.25 1941.5,1064.44 1962.57,1068.82C1991.35,1074.8 2066.47,1103.44 2114.65,1113.54C2128.16,1116.37 2136.82,1129.63 2133.99,1143.13C2131.16,1156.64 2117.9,1165.3 2104.4,1162.47C2056.23,1152.38 1981.15,1123.75 1952.39,1117.77C1938.1,1114.8 1922.58,1108.78 1909.05,1105.42C1906.61,1104.81 1903.21,1104.35 1901.01,1104.09Z" style="fill:rgb(0,96,255);"/>
            <path d="M1887.41,1127.28C1886.95,1128.53 1886.41,1129.84 1885.83,1131.06C1881.13,1140.76 1877.23,1139.22 1866.53,1179.32C1853.48,1228.2 1877.3,1260.98 1883.75,1281.65C1887.87,1294.82 1880.51,1308.85 1867.34,1312.96C1854.17,1317.08 1840.14,1309.72 1836.03,1296.55C1827.86,1270.39 1801.71,1228.29 1818.22,1166.43C1830.87,1119.02 1835.27,1120.75 1840.82,1109.28C1843.72,1103.28 1843.91,1100.73 1846.09,1097.79L1850.12,1093.33L1855.95,1088.94C1867.64,1081.62 1883.08,1085.16 1890.4,1096.86C1896.57,1106.7 1895.03,1119.2 1887.41,1127.28ZM1888.82,1123.01C1889.06,1122.3 1889.15,1121.85 1889.15,1121.85C1889.15,1121.85 1889.03,1122.29 1888.82,1123.01Z" style="fill:rgb(0,96,255);"/>
            <path d="M2074.22,1338.68C2088.01,1339.12 2098.85,1350.67 2098.41,1364.46C2097.98,1378.25 2086.43,1389.09 2072.64,1388.65C2061.56,1388.3 2053.34,1385.8 2045.63,1382.54C2039.61,1379.98 2034.31,1376.25 2025.29,1374.85C2004.76,1371.64 1931.97,1336.69 1876.8,1321.79C1863.69,1318.25 1863.88,1318.06 1851.38,1313C1838.59,1307.83 1832.4,1293.24 1837.58,1280.45C1842.75,1267.66 1857.34,1261.48 1870.13,1266.65C1879.83,1270.58 1879.67,1270.78 1889.84,1273.52C1943.12,1287.91 2013.18,1322.35 2033,1325.44C2043.4,1327.07 2051.08,1330.09 2058.11,1333.29C2063.06,1335.55 2067.18,1338.46 2074.22,1338.68Z" style="fill:rgb(0,96,255);"/>
            <path d="M1968.51,2366.91C1971.62,2353.47 1985.06,2345.08 1998.5,2348.19C2011.94,2351.29 2020.33,2364.73 2017.23,2378.17C2010.55,2407.07 2016.76,2407.67 2011.31,2436.93C2008.15,2453.9 2013.58,2454.5 2001.92,2510.5C1985.21,2590.68 1987.51,2590.88 1980.57,2672.35C1970.18,2794.31 1965.1,2793.64 1956.36,2930.89C1955.48,2944.66 1943.59,2955.13 1929.82,2954.25C1916.05,2953.38 1905.58,2941.49 1906.46,2927.72C1915.24,2789.89 1920.32,2790.57 1930.75,2668.11C1937.94,2583.64 1935.65,2583.44 1952.97,2500.3C1964.46,2445.1 1959.05,2444.51 1962.16,2427.78C1967.8,2397.46 1961.59,2396.86 1968.51,2366.91Z" style="fill:rgb(0,96,255);"/>
            <path d="M1962.08,2914.41L1966.35,2906.87C1964.72,2908.86 1961.77,2911.09 1960.93,2919.96C1972.73,2793.18 1974.2,2782.38 1975.8,2770.46C1981.76,2726.2 1993.61,2582.91 1993.76,2579.02C1993.8,2577.92 2013.48,2405.93 2019.32,2370.78C2021.58,2357.17 2034.46,2347.95 2048.07,2350.21C2061.69,2352.47 2070.9,2365.36 2068.64,2378.97C2062.98,2413.07 2043.76,2579.89 2043.72,2580.95C2043.57,2584.94 2031.46,2731.77 2025.35,2777.13C2023.77,2788.88 2022.35,2799.55 2010.72,2924.61L2010.47,2925.7C2010.45,2926.1 2010.41,2926.68 2010.35,2927.53C2009.45,2941.3 1997.54,2951.74 1983.77,2950.84C1970,2949.93 1959.56,2938.02 1960.46,2924.25C1960.65,2921.32 1960.64,2921.55 1960.65,2921.32L1962.08,2914.41ZM2010.45,2925.79L2009.25,2931.17L2005.06,2938.51C2007.34,2935.72 2009.72,2933.9 2010.45,2925.79Z" style="fill:rgb(0,96,255);"/>
            <path d="M2073.6,2369.05C2076.49,2355.56 2089.79,2346.96 2103.28,2349.85C2116.77,2352.75 2125.38,2366.05 2122.48,2379.54C2104.65,2462.65 2120.09,2465.33 2095.33,2546.84C2072.91,2620.62 2079.25,2626.28 2038.44,2681.18C2030.21,2692.26 2014.53,2694.57 2003.46,2686.33C1992.39,2678.1 1990.08,2662.43 1998.31,2651.36C2034.35,2602.88 2027.69,2597.45 2047.49,2532.31C2071.64,2452.79 2056.2,2450.12 2073.6,2369.05Z" style="fill:rgb(0,96,255);"/>
            <path d="M2448.92,2432.79C2456.96,2421.58 2472.59,2419.01 2483.8,2427.05C2495.02,2435.09 2497.59,2450.72 2489.55,2461.93C2485.19,2468.01 2464.44,2488.98 2432.7,2505.8C2386.24,2530.42 2316.75,2546.92 2245.25,2497.76C2237.59,2492.5 2152.79,2434.12 2149.71,2431.66C2113.71,2402.89 2109.85,2408.67 2073.83,2379.93C2063.04,2371.33 2061.27,2355.59 2069.88,2344.8C2078.48,2334.02 2094.22,2332.24 2105.01,2340.85C2141.05,2369.6 2144.91,2363.82 2180.93,2392.61C2183.91,2394.99 2266.15,2451.46 2273.58,2456.56C2325.33,2492.14 2375.66,2479.44 2409.29,2461.62C2430.95,2450.14 2445.94,2436.94 2448.92,2432.79Z" style="fill:rgb(0,96,255);"/>
            <path d="M2492.53,2459.72C2484.66,2471.05 2469.07,2473.87 2457.74,2466C2446.4,2458.14 2443.58,2442.55 2451.45,2431.21C2456.07,2424.55 2455.62,2424.34 2505.72,2345.7C2511.55,2336.56 2526.4,2284.48 2528.02,2277.6C2531.17,2264.17 2544.64,2255.83 2558.07,2258.98C2571.51,2262.14 2579.85,2275.61 2576.69,2289.04C2574.7,2297.52 2555.07,2361.29 2547.89,2372.57C2496.81,2452.74 2497.24,2452.93 2492.53,2459.72Z" style="fill:rgb(0,96,255);"/>
            <path d="M2460.38,2122.19C2450.84,2112.22 2451.19,2096.38 2461.16,2086.85C2471.13,2077.31 2486.97,2077.66 2496.51,2087.62C2501.64,2092.98 2516.59,2107.93 2544.92,2166.7C2580.09,2239.67 2578.05,2277.95 2577.71,2288C2577.23,2301.79 2565.65,2312.6 2551.86,2312.12C2538.07,2311.65 2527.26,2300.07 2527.74,2286.28C2528.02,2278.14 2528.36,2247.5 2499.88,2188.41C2476.32,2139.54 2464.65,2126.65 2460.38,2122.19Z" style="fill:rgb(0,96,255);"/>
            <path d="M2417.51,2028.14C2429.82,2035 2484.72,2066.04 2502.39,2092.41C2510.08,2103.87 2507.01,2119.41 2495.55,2127.09C2484.09,2134.78 2468.54,2131.71 2460.86,2120.25C2453.63,2109.45 2437.27,2098.4 2423.04,2089.34C2404.47,2077.51 2388.2,2068.77 2387.33,2068.05C2359.38,2045.02 2329.63,2038.16 2305.69,2027.82C2230.84,1995.51 2197.65,1947.3 2172.39,1904.47C2163.53,1889.43 2155.79,1875.17 2147.15,1862.95C2137.35,1849.09 2126.57,1838.03 2108.96,1834.18C2095.48,1831.24 2086.92,1817.9 2089.87,1804.42C2092.81,1790.94 2106.15,1782.39 2119.63,1785.33C2159.19,1793.97 2181.07,1820.76 2202.16,1856.28C2225.94,1896.35 2249.96,1949.3 2325.51,1981.92C2352.67,1993.64 2385.75,2002.59 2417.51,2028.14Z" style="fill:rgb(0,96,255);"/>
        </g>
    </g>
</svg>
